<mxfile host="app.diagrams.net" agent="Mozilla/5.0 (Windows NT 10.0; Win64; x64) AppleWebKit/537.36 (KHTML, like Gecko) Chrome/137.0.0.0 Safari/537.36" version="27.1.3">
  <diagram name="Page-1" id="sIsdb8ABGHGhw97ccusu">
    <mxGraphModel dx="1383" dy="711" grid="1" gridSize="10" guides="1" tooltips="1" connect="1" arrows="1" fold="1" page="1" pageScale="1" pageWidth="850" pageHeight="1100" math="0" shadow="0">
      <root>
        <mxCell id="0" />
        <mxCell id="1" parent="0" />
        <mxCell id="RZQ_iPPcuHRyVityCFWD-1" value="START" style="ellipse;whiteSpace=wrap;html=1;" vertex="1" parent="1">
          <mxGeometry x="400" y="40" width="120" height="80" as="geometry" />
        </mxCell>
        <mxCell id="RZQ_iPPcuHRyVityCFWD-104" style="edgeStyle=orthogonalEdgeStyle;rounded=0;orthogonalLoop=1;jettySize=auto;html=1;entryX=0;entryY=0.5;entryDx=0;entryDy=0;" edge="1" parent="1" source="RZQ_iPPcuHRyVityCFWD-2" target="RZQ_iPPcuHRyVityCFWD-11">
          <mxGeometry relative="1" as="geometry" />
        </mxCell>
        <mxCell id="RZQ_iPPcuHRyVityCFWD-2" value="if (allItems == null)" style="strokeWidth=2;html=1;shape=mxgraph.flowchart.decision;whiteSpace=wrap;" vertex="1" parent="1">
          <mxGeometry x="385" y="230" width="150" height="100" as="geometry" />
        </mxCell>
        <mxCell id="RZQ_iPPcuHRyVityCFWD-3" style="edgeStyle=orthogonalEdgeStyle;rounded=0;orthogonalLoop=1;jettySize=auto;html=1;" edge="1" parent="1" source="RZQ_iPPcuHRyVityCFWD-1">
          <mxGeometry relative="1" as="geometry">
            <mxPoint x="460" y="230" as="targetPoint" />
          </mxGeometry>
        </mxCell>
        <mxCell id="RZQ_iPPcuHRyVityCFWD-4" value="throw new RuntimeException(&quot;allItems list can&#39;t be null!&quot;);" style="strokeWidth=2;html=1;shape=mxgraph.flowchart.terminator;whiteSpace=wrap;" vertex="1" parent="1">
          <mxGeometry x="10" y="250" width="240" height="60" as="geometry" />
        </mxCell>
        <mxCell id="RZQ_iPPcuHRyVityCFWD-105" style="edgeStyle=orthogonalEdgeStyle;rounded=0;orthogonalLoop=1;jettySize=auto;html=1;entryX=0.5;entryY=0;entryDx=0;entryDy=0;" edge="1" parent="1" source="RZQ_iPPcuHRyVityCFWD-11" target="RZQ_iPPcuHRyVityCFWD-14">
          <mxGeometry relative="1" as="geometry" />
        </mxCell>
        <mxCell id="RZQ_iPPcuHRyVityCFWD-11" value="double sum = 0" style="shape=parallelogram;html=1;strokeWidth=2;perimeter=parallelogramPerimeter;whiteSpace=wrap;rounded=1;arcSize=12;size=0.23;" vertex="1" parent="1">
          <mxGeometry x="830" y="240" width="130" height="70" as="geometry" />
        </mxCell>
        <mxCell id="RZQ_iPPcuHRyVityCFWD-67" style="edgeStyle=orthogonalEdgeStyle;rounded=0;orthogonalLoop=1;jettySize=auto;html=1;entryX=0.497;entryY=0.12;entryDx=0;entryDy=0;entryPerimeter=0;" edge="1" parent="1" source="RZQ_iPPcuHRyVityCFWD-68" target="RZQ_iPPcuHRyVityCFWD-70">
          <mxGeometry relative="1" as="geometry">
            <mxPoint x="180" y="550" as="targetPoint" />
          </mxGeometry>
        </mxCell>
        <mxCell id="RZQ_iPPcuHRyVityCFWD-14" value="for (int i = 0; i &amp;lt; allItems.size(); i++)" style="rounded=1;whiteSpace=wrap;html=1;absoluteArcSize=1;arcSize=14;strokeWidth=2;" vertex="1" parent="1">
          <mxGeometry x="992.25" y="390" width="240" height="80" as="geometry" />
        </mxCell>
        <UserObject label="&#xa;Item item = allItems.get(i);&#xa;&#xa;" link="&#xa;Item item = allItems.get(i);&#xa;&#xa;" id="RZQ_iPPcuHRyVityCFWD-17">
          <mxCell style="shape=parallelogram;html=1;strokeWidth=2;perimeter=parallelogramPerimeter;whiteSpace=wrap;rounded=1;arcSize=12;size=0.23;" vertex="1" parent="1">
            <mxGeometry x="996.25" y="520" width="222.5" height="50" as="geometry" />
          </mxCell>
        </UserObject>
        <mxCell id="RZQ_iPPcuHRyVityCFWD-18" style="edgeStyle=orthogonalEdgeStyle;rounded=0;orthogonalLoop=1;jettySize=auto;html=1;entryX=0.5;entryY=0;entryDx=0;entryDy=0;endArrow=none;startFill=0;" edge="1" parent="1" source="RZQ_iPPcuHRyVityCFWD-14" target="RZQ_iPPcuHRyVityCFWD-17">
          <mxGeometry relative="1" as="geometry" />
        </mxCell>
        <mxCell id="RZQ_iPPcuHRyVityCFWD-21" style="edgeStyle=orthogonalEdgeStyle;rounded=0;orthogonalLoop=1;jettySize=auto;html=1;" edge="1" parent="1" source="RZQ_iPPcuHRyVityCFWD-22">
          <mxGeometry relative="1" as="geometry">
            <mxPoint x="1352.25" y="725" as="targetPoint" />
          </mxGeometry>
        </mxCell>
        <mxCell id="RZQ_iPPcuHRyVityCFWD-19" value="&#xa;if (item.getName() == null || item.getName().length() == 0)&#xa;&#xa;" style="strokeWidth=2;html=1;shape=mxgraph.flowchart.decision;whiteSpace=wrap;" vertex="1" parent="1">
          <mxGeometry x="977.5" y="630" width="244.75" height="190" as="geometry" />
        </mxCell>
        <mxCell id="RZQ_iPPcuHRyVityCFWD-20" style="edgeStyle=orthogonalEdgeStyle;rounded=0;orthogonalLoop=1;jettySize=auto;html=1;entryX=0.497;entryY=0.053;entryDx=0;entryDy=0;entryPerimeter=0;" edge="1" parent="1" source="RZQ_iPPcuHRyVityCFWD-17" target="RZQ_iPPcuHRyVityCFWD-19">
          <mxGeometry relative="1" as="geometry">
            <Array as="points">
              <mxPoint x="1102.25" y="600" />
              <mxPoint x="1099.25" y="600" />
            </Array>
          </mxGeometry>
        </mxCell>
        <mxCell id="RZQ_iPPcuHRyVityCFWD-23" value="&amp;nbsp;throw new RuntimeException(&quot;Invalid item!&quot;);" style="strokeWidth=2;html=1;shape=mxgraph.flowchart.terminator;whiteSpace=wrap;" vertex="1" parent="1">
          <mxGeometry x="1342.25" y="695" width="217.75" height="60" as="geometry" />
        </mxCell>
        <mxCell id="RZQ_iPPcuHRyVityCFWD-30" style="edgeStyle=orthogonalEdgeStyle;rounded=0;orthogonalLoop=1;jettySize=auto;html=1;" edge="1" parent="1" source="RZQ_iPPcuHRyVityCFWD-32" target="RZQ_iPPcuHRyVityCFWD-31">
          <mxGeometry relative="1" as="geometry">
            <mxPoint x="1097.25" y="1140" as="targetPoint" />
          </mxGeometry>
        </mxCell>
        <mxCell id="RZQ_iPPcuHRyVityCFWD-38" style="edgeStyle=orthogonalEdgeStyle;rounded=0;orthogonalLoop=1;jettySize=auto;html=1;" edge="1" parent="1" source="RZQ_iPPcuHRyVityCFWD-26" target="RZQ_iPPcuHRyVityCFWD-39">
          <mxGeometry relative="1" as="geometry">
            <mxPoint x="1097.25" y="1200" as="targetPoint" />
          </mxGeometry>
        </mxCell>
        <mxCell id="RZQ_iPPcuHRyVityCFWD-26" value="&lt;br&gt;if (item.getPrice() &amp;gt; 300 || item.getDiscount() &amp;gt; 0 || item.getQuantity() &amp;gt; 10)" style="strokeWidth=2;html=1;shape=mxgraph.flowchart.decision;whiteSpace=wrap;" vertex="1" parent="1">
          <mxGeometry x="942.25" y="900" width="310" height="190" as="geometry" />
        </mxCell>
        <mxCell id="RZQ_iPPcuHRyVityCFWD-27" style="edgeStyle=orthogonalEdgeStyle;rounded=0;orthogonalLoop=1;jettySize=auto;html=1;entryX=0.5;entryY=0;entryDx=0;entryDy=0;entryPerimeter=0;" edge="1" parent="1" source="RZQ_iPPcuHRyVityCFWD-19" target="RZQ_iPPcuHRyVityCFWD-26">
          <mxGeometry relative="1" as="geometry" />
        </mxCell>
        <mxCell id="RZQ_iPPcuHRyVityCFWD-28" value="&lt;div&gt;&lt;br&gt;&lt;/div&gt;" style="text;html=1;align=center;verticalAlign=middle;resizable=0;points=[];autosize=1;strokeColor=none;fillColor=none;" vertex="1" parent="1">
          <mxGeometry x="1062.25" y="848" width="20" height="30" as="geometry" />
        </mxCell>
        <mxCell id="RZQ_iPPcuHRyVityCFWD-31" value="sum = -30" style="shape=parallelogram;html=1;strokeWidth=2;perimeter=parallelogramPerimeter;whiteSpace=wrap;rounded=1;arcSize=12;size=0.23;" vertex="1" parent="1">
          <mxGeometry x="1372.25" y="960" width="100" height="60" as="geometry" />
        </mxCell>
        <mxCell id="RZQ_iPPcuHRyVityCFWD-33" value="" style="edgeStyle=orthogonalEdgeStyle;rounded=0;orthogonalLoop=1;jettySize=auto;html=1;" edge="1" parent="1" source="RZQ_iPPcuHRyVityCFWD-26" target="RZQ_iPPcuHRyVityCFWD-32">
          <mxGeometry relative="1" as="geometry">
            <mxPoint x="1384.25" y="990" as="targetPoint" />
            <mxPoint x="1252.25" y="995" as="sourcePoint" />
          </mxGeometry>
        </mxCell>
        <mxCell id="RZQ_iPPcuHRyVityCFWD-32" value="TRUE" style="text;html=1;align=center;verticalAlign=middle;resizable=0;points=[];autosize=1;strokeColor=none;fillColor=none;" vertex="1" parent="1">
          <mxGeometry x="1287.25" y="960" width="60" height="30" as="geometry" />
        </mxCell>
        <mxCell id="RZQ_iPPcuHRyVityCFWD-34" value="" style="edgeStyle=orthogonalEdgeStyle;rounded=0;orthogonalLoop=1;jettySize=auto;html=1;" edge="1" parent="1" source="RZQ_iPPcuHRyVityCFWD-19" target="RZQ_iPPcuHRyVityCFWD-22">
          <mxGeometry relative="1" as="geometry">
            <mxPoint x="1352.25" y="725" as="targetPoint" />
            <mxPoint x="1222.25" y="725" as="sourcePoint" />
          </mxGeometry>
        </mxCell>
        <mxCell id="RZQ_iPPcuHRyVityCFWD-22" value="TRUE" style="text;html=1;align=center;verticalAlign=middle;resizable=0;points=[];autosize=1;strokeColor=none;fillColor=none;" vertex="1" parent="1">
          <mxGeometry x="1252.25" y="710" width="60" height="30" as="geometry" />
        </mxCell>
        <mxCell id="RZQ_iPPcuHRyVityCFWD-41" style="edgeStyle=orthogonalEdgeStyle;rounded=0;orthogonalLoop=1;jettySize=auto;html=1;entryX=0;entryY=0.5;entryDx=0;entryDy=0;" edge="1" parent="1" source="RZQ_iPPcuHRyVityCFWD-42" target="RZQ_iPPcuHRyVityCFWD-40">
          <mxGeometry relative="1" as="geometry" />
        </mxCell>
        <mxCell id="RZQ_iPPcuHRyVityCFWD-44" style="edgeStyle=orthogonalEdgeStyle;rounded=0;orthogonalLoop=1;jettySize=auto;html=1;entryX=0.023;entryY=0.892;entryDx=0;entryDy=0;entryPerimeter=0;" edge="1" parent="1" source="RZQ_iPPcuHRyVityCFWD-45" target="RZQ_iPPcuHRyVityCFWD-48">
          <mxGeometry relative="1" as="geometry">
            <mxPoint x="1097.25" y="1420" as="targetPoint" />
            <Array as="points">
              <mxPoint x="1097.25" y="1373" />
              <mxPoint x="1098.25" y="1373" />
              <mxPoint x="1098.25" y="1417" />
            </Array>
          </mxGeometry>
        </mxCell>
        <mxCell id="RZQ_iPPcuHRyVityCFWD-61" style="edgeStyle=orthogonalEdgeStyle;rounded=0;orthogonalLoop=1;jettySize=auto;html=1;entryX=0;entryY=0.5;entryDx=0;entryDy=0;endArrow=none;startFill=0;" edge="1" parent="1" target="RZQ_iPPcuHRyVityCFWD-14">
          <mxGeometry relative="1" as="geometry">
            <mxPoint x="591.25" y="430.0000000000001" as="targetPoint" />
            <mxPoint x="731.2499999999995" y="865" as="sourcePoint" />
            <Array as="points">
              <mxPoint x="731.25" y="460" />
              <mxPoint x="992.25" y="460" />
            </Array>
          </mxGeometry>
        </mxCell>
        <mxCell id="RZQ_iPPcuHRyVityCFWD-39" value="if (item.getDiscount() &amp;gt; 0)" style="strokeWidth=2;html=1;shape=mxgraph.flowchart.decision;whiteSpace=wrap;" vertex="1" parent="1">
          <mxGeometry x="987.25" y="1150" width="220" height="100" as="geometry" />
        </mxCell>
        <mxCell id="RZQ_iPPcuHRyVityCFWD-112" style="edgeStyle=orthogonalEdgeStyle;rounded=0;orthogonalLoop=1;jettySize=auto;html=1;" edge="1" parent="1" source="RZQ_iPPcuHRyVityCFWD-40">
          <mxGeometry relative="1" as="geometry">
            <mxPoint x="1660" y="1590" as="targetPoint" />
          </mxGeometry>
        </mxCell>
        <mxCell id="RZQ_iPPcuHRyVityCFWD-40" value="sum += item.getPrice()*(1-item.getDiscount())*item.getQuantity();" style="shape=parallelogram;html=1;strokeWidth=2;perimeter=parallelogramPerimeter;whiteSpace=wrap;rounded=1;arcSize=12;size=0.23;" vertex="1" parent="1">
          <mxGeometry x="1312.25" y="1140" width="310" height="120" as="geometry" />
        </mxCell>
        <mxCell id="RZQ_iPPcuHRyVityCFWD-43" value="" style="edgeStyle=orthogonalEdgeStyle;rounded=0;orthogonalLoop=1;jettySize=auto;html=1;entryX=0;entryY=0.5;entryDx=0;entryDy=0;" edge="1" parent="1" source="RZQ_iPPcuHRyVityCFWD-39" target="RZQ_iPPcuHRyVityCFWD-42">
          <mxGeometry relative="1" as="geometry">
            <mxPoint x="1207.25" y="1200" as="sourcePoint" />
            <mxPoint x="1278.25" y="1200" as="targetPoint" />
          </mxGeometry>
        </mxCell>
        <mxCell id="RZQ_iPPcuHRyVityCFWD-42" value="TRUE" style="text;html=1;align=center;verticalAlign=middle;resizable=0;points=[];autosize=1;strokeColor=none;fillColor=none;" vertex="1" parent="1">
          <mxGeometry x="1232.25" y="1185" width="60" height="30" as="geometry" />
        </mxCell>
        <mxCell id="RZQ_iPPcuHRyVityCFWD-46" value="" style="edgeStyle=orthogonalEdgeStyle;rounded=0;orthogonalLoop=1;jettySize=auto;html=1;" edge="1" parent="1" source="RZQ_iPPcuHRyVityCFWD-39" target="RZQ_iPPcuHRyVityCFWD-45">
          <mxGeometry relative="1" as="geometry">
            <mxPoint x="1097.25" y="1340" as="targetPoint" />
            <mxPoint x="1097.25" y="1250" as="sourcePoint" />
          </mxGeometry>
        </mxCell>
        <mxCell id="RZQ_iPPcuHRyVityCFWD-45" value="ELSE" style="text;html=1;align=center;verticalAlign=middle;resizable=0;points=[];autosize=1;strokeColor=none;fillColor=none;" vertex="1" parent="1">
          <mxGeometry x="1072.25" y="1295" width="50" height="30" as="geometry" />
        </mxCell>
        <mxCell id="RZQ_iPPcuHRyVityCFWD-113" style="edgeStyle=orthogonalEdgeStyle;rounded=0;orthogonalLoop=1;jettySize=auto;html=1;" edge="1" parent="1" source="RZQ_iPPcuHRyVityCFWD-48">
          <mxGeometry relative="1" as="geometry">
            <mxPoint x="1660" y="1590" as="targetPoint" />
          </mxGeometry>
        </mxCell>
        <mxCell id="RZQ_iPPcuHRyVityCFWD-48" value="sum += item.getPrice()*item.getQuantity();" style="shape=parallelogram;html=1;strokeWidth=2;perimeter=parallelogramPerimeter;whiteSpace=wrap;rounded=1;arcSize=12;size=0.23;" vertex="1" parent="1">
          <mxGeometry x="1262.25" y="1310" width="310" height="120" as="geometry" />
        </mxCell>
        <mxCell id="RZQ_iPPcuHRyVityCFWD-62" value="LOOP BACK" style="text;html=1;align=center;verticalAlign=middle;resizable=0;points=[];autosize=1;strokeColor=none;fillColor=none;" vertex="1" parent="1">
          <mxGeometry x="690" y="870" width="90" height="30" as="geometry" />
        </mxCell>
        <mxCell id="RZQ_iPPcuHRyVityCFWD-65" style="edgeStyle=orthogonalEdgeStyle;rounded=0;orthogonalLoop=1;jettySize=auto;html=1;entryX=0.502;entryY=1.029;entryDx=0;entryDy=0;entryPerimeter=0;" edge="1" parent="1" source="RZQ_iPPcuHRyVityCFWD-39">
          <mxGeometry relative="1" as="geometry">
            <mxPoint x="731.4299999999998" y="895.8699999999999" as="targetPoint" />
          </mxGeometry>
        </mxCell>
        <mxCell id="RZQ_iPPcuHRyVityCFWD-69" value="" style="edgeStyle=orthogonalEdgeStyle;rounded=0;orthogonalLoop=1;jettySize=auto;html=1;entryX=0.991;entryY=0.441;entryDx=0;entryDy=0;entryPerimeter=0;" edge="1" parent="1" source="RZQ_iPPcuHRyVityCFWD-14" target="RZQ_iPPcuHRyVityCFWD-68">
          <mxGeometry relative="1" as="geometry">
            <mxPoint x="831.2500000000005" y="430" as="targetPoint" />
            <mxPoint x="992.25" y="430" as="sourcePoint" />
          </mxGeometry>
        </mxCell>
        <mxCell id="RZQ_iPPcuHRyVityCFWD-68" value="AFTER LOOP IS DONE" style="text;html=1;align=center;verticalAlign=middle;resizable=0;points=[];autosize=1;strokeColor=none;fillColor=none;" vertex="1" parent="1">
          <mxGeometry x="380" y="405" width="150" height="30" as="geometry" />
        </mxCell>
        <mxCell id="RZQ_iPPcuHRyVityCFWD-100" style="edgeStyle=orthogonalEdgeStyle;rounded=0;orthogonalLoop=1;jettySize=auto;html=1;" edge="1" parent="1" source="RZQ_iPPcuHRyVityCFWD-101">
          <mxGeometry relative="1" as="geometry">
            <mxPoint x="430" y="610" as="targetPoint" />
          </mxGeometry>
        </mxCell>
        <UserObject label="&#xa;if (cardNumber != null &amp;amp;&amp;amp; cardNumber.length() == 16)&#xa;&#xa;" link="&#xa;if (cardNumber != null &amp;amp;&amp;amp; cardNumber.length() == 16)&#xa;&#xa;" id="RZQ_iPPcuHRyVityCFWD-70">
          <mxCell style="strokeWidth=2;html=1;shape=mxgraph.flowchart.decision;whiteSpace=wrap;" vertex="1" parent="1">
            <mxGeometry x="70" y="535" width="210" height="150" as="geometry" />
          </mxCell>
        </UserObject>
        <mxCell id="RZQ_iPPcuHRyVityCFWD-73" value="&lt;div&gt;&amp;nbsp;String allowed = &quot;0123456789&quot;;&lt;/div&gt;&lt;div&gt;char[] chars = cardNumber.toCharArray();&lt;/div&gt;" style="shape=parallelogram;html=1;strokeWidth=2;perimeter=parallelogramPerimeter;whiteSpace=wrap;rounded=1;arcSize=12;size=0.23;" vertex="1" parent="1">
          <mxGeometry x="132.5" y="720" width="330" height="55" as="geometry" />
        </mxCell>
        <mxCell id="RZQ_iPPcuHRyVityCFWD-78" style="edgeStyle=orthogonalEdgeStyle;rounded=0;orthogonalLoop=1;jettySize=auto;html=1;" edge="1" parent="1" source="RZQ_iPPcuHRyVityCFWD-76" target="RZQ_iPPcuHRyVityCFWD-79">
          <mxGeometry relative="1" as="geometry">
            <mxPoint x="127.5" y="1020" as="targetPoint" />
          </mxGeometry>
        </mxCell>
        <UserObject label="for (int j = 0; j &lt; cardNumber.length(); j++)" link="for (int j = 0; j &lt; cardNumber.length(); j++)" id="RZQ_iPPcuHRyVityCFWD-76">
          <mxCell style="rounded=1;whiteSpace=wrap;html=1;absoluteArcSize=1;arcSize=14;strokeWidth=2;" vertex="1" parent="1">
            <mxGeometry x="200" y="830" width="175" height="100" as="geometry" />
          </mxCell>
        </UserObject>
        <mxCell id="RZQ_iPPcuHRyVityCFWD-80" style="edgeStyle=orthogonalEdgeStyle;rounded=0;orthogonalLoop=1;jettySize=auto;html=1;" edge="1" parent="1" source="RZQ_iPPcuHRyVityCFWD-79" target="RZQ_iPPcuHRyVityCFWD-81">
          <mxGeometry relative="1" as="geometry">
            <mxPoint x="148.75" y="1110" as="targetPoint" />
          </mxGeometry>
        </mxCell>
        <mxCell id="RZQ_iPPcuHRyVityCFWD-79" value="char c = cardNumber.charAt(j);" style="shape=parallelogram;html=1;strokeWidth=2;perimeter=parallelogramPerimeter;whiteSpace=wrap;rounded=1;arcSize=12;size=0.23;" vertex="1" parent="1">
          <mxGeometry x="267.5" y="960" width="162.5" height="90" as="geometry" />
        </mxCell>
        <mxCell id="RZQ_iPPcuHRyVityCFWD-85" style="edgeStyle=orthogonalEdgeStyle;rounded=0;orthogonalLoop=1;jettySize=auto;html=1;" edge="1" parent="1" source="RZQ_iPPcuHRyVityCFWD-81" target="RZQ_iPPcuHRyVityCFWD-87">
          <mxGeometry relative="1" as="geometry">
            <mxPoint x="235" y="1260" as="targetPoint" />
          </mxGeometry>
        </mxCell>
        <mxCell id="RZQ_iPPcuHRyVityCFWD-81" value="if (allowed.indexOf(c) == -1)&amp;nbsp;" style="strokeWidth=2;html=1;shape=mxgraph.flowchart.decision;whiteSpace=wrap;" vertex="1" parent="1">
          <mxGeometry x="230" y="1060" width="195" height="140" as="geometry" />
        </mxCell>
        <mxCell id="RZQ_iPPcuHRyVityCFWD-87" value="throw new RuntimeException(&quot;Invalid character in card number!&quot;);" style="strokeWidth=2;html=1;shape=mxgraph.flowchart.terminator;whiteSpace=wrap;" vertex="1" parent="1">
          <mxGeometry x="232.5" y="1235" width="225" height="60" as="geometry" />
        </mxCell>
        <mxCell id="RZQ_iPPcuHRyVityCFWD-98" style="edgeStyle=orthogonalEdgeStyle;rounded=0;orthogonalLoop=1;jettySize=auto;html=1;entryX=0.5;entryY=0;entryDx=0;entryDy=0;" edge="1" parent="1" source="RZQ_iPPcuHRyVityCFWD-70" target="RZQ_iPPcuHRyVityCFWD-73">
          <mxGeometry relative="1" as="geometry" />
        </mxCell>
        <mxCell id="RZQ_iPPcuHRyVityCFWD-99" value="TRUE" style="edgeLabel;html=1;align=center;verticalAlign=middle;resizable=0;points=[];" vertex="1" connectable="0" parent="RZQ_iPPcuHRyVityCFWD-98">
          <mxGeometry x="0.168" y="12" relative="1" as="geometry">
            <mxPoint x="-24" y="-5" as="offset" />
          </mxGeometry>
        </mxCell>
        <mxCell id="RZQ_iPPcuHRyVityCFWD-102" value="" style="edgeStyle=orthogonalEdgeStyle;rounded=0;orthogonalLoop=1;jettySize=auto;html=1;" edge="1" parent="1" source="RZQ_iPPcuHRyVityCFWD-70" target="RZQ_iPPcuHRyVityCFWD-101">
          <mxGeometry relative="1" as="geometry">
            <mxPoint x="430" y="610" as="targetPoint" />
            <mxPoint x="280" y="610" as="sourcePoint" />
          </mxGeometry>
        </mxCell>
        <mxCell id="RZQ_iPPcuHRyVityCFWD-101" value="ELSE" style="text;html=1;align=center;verticalAlign=middle;resizable=0;points=[];autosize=1;strokeColor=none;fillColor=none;" vertex="1" parent="1">
          <mxGeometry x="330" y="590" width="50" height="30" as="geometry" />
        </mxCell>
        <mxCell id="RZQ_iPPcuHRyVityCFWD-103" value="throw new RuntimeException(&quot;Invalid card number!&quot;);" style="strokeWidth=2;html=1;shape=mxgraph.flowchart.terminator;whiteSpace=wrap;" vertex="1" parent="1">
          <mxGeometry x="430" y="580" width="200" height="60" as="geometry" />
        </mxCell>
        <mxCell id="RZQ_iPPcuHRyVityCFWD-106" style="edgeStyle=orthogonalEdgeStyle;rounded=0;orthogonalLoop=1;jettySize=auto;html=1;entryX=1;entryY=0.5;entryDx=0;entryDy=0;entryPerimeter=0;" edge="1" parent="1" source="RZQ_iPPcuHRyVityCFWD-107" target="RZQ_iPPcuHRyVityCFWD-4">
          <mxGeometry relative="1" as="geometry" />
        </mxCell>
        <mxCell id="RZQ_iPPcuHRyVityCFWD-108" value="" style="edgeStyle=orthogonalEdgeStyle;rounded=0;orthogonalLoop=1;jettySize=auto;html=1;entryX=1;entryY=0.5;entryDx=0;entryDy=0;entryPerimeter=0;" edge="1" parent="1" source="RZQ_iPPcuHRyVityCFWD-2" target="RZQ_iPPcuHRyVityCFWD-107">
          <mxGeometry relative="1" as="geometry">
            <mxPoint x="385" y="280" as="sourcePoint" />
            <mxPoint x="250" y="280" as="targetPoint" />
          </mxGeometry>
        </mxCell>
        <mxCell id="RZQ_iPPcuHRyVityCFWD-107" value="TRUE" style="text;html=1;align=center;verticalAlign=middle;resizable=0;points=[];autosize=1;strokeColor=none;fillColor=none;" vertex="1" parent="1">
          <mxGeometry x="290" y="260" width="60" height="30" as="geometry" />
        </mxCell>
        <mxCell id="RZQ_iPPcuHRyVityCFWD-109" style="edgeStyle=orthogonalEdgeStyle;rounded=0;orthogonalLoop=1;jettySize=auto;html=1;entryX=0.583;entryY=-0.023;entryDx=0;entryDy=0;entryPerimeter=0;" edge="1" parent="1" source="RZQ_iPPcuHRyVityCFWD-73" target="RZQ_iPPcuHRyVityCFWD-76">
          <mxGeometry relative="1" as="geometry" />
        </mxCell>
        <mxCell id="RZQ_iPPcuHRyVityCFWD-111" value="TRUE" style="text;html=1;align=center;verticalAlign=middle;resizable=0;points=[];autosize=1;strokeColor=none;fillColor=none;" vertex="1" parent="1">
          <mxGeometry x="330" y="1200" width="60" height="30" as="geometry" />
        </mxCell>
        <mxCell id="RZQ_iPPcuHRyVityCFWD-115" value="return sum;" style="strokeWidth=2;html=1;shape=mxgraph.flowchart.terminator;whiteSpace=wrap;" vertex="1" parent="1">
          <mxGeometry x="1610" y="1580" width="100" height="60" as="geometry" />
        </mxCell>
      </root>
    </mxGraphModel>
  </diagram>
</mxfile>
